<svg width="943" height="90" viewBox="0 0 943 90" fill="none" xmlns="http://www.w3.org/2000/svg">
<path d="M5.77344 90L11.5469 80H-6.53267e-05L5.77344 90ZM5.77344 1V0H4.77344V1H5.77344ZM936.773 1H937.773V0H936.773V1ZM936.773 54.5L942.547 44.5H931L936.773 54.5ZM5.77344 83.9318H6.77344V79.8864H5.77344H4.77344V83.9318H5.77344ZM5.77344 75.8409H6.77344V71.7955H5.77344H4.77344V75.8409H5.77344ZM5.77344 67.75H6.77344V63.7045H5.77344H4.77344V67.75H5.77344ZM5.77344 59.6591H6.77344V55.6136H5.77344H4.77344V59.6591H5.77344ZM5.77344 51.5682H6.77344V47.5227H5.77344H4.77344V51.5682H5.77344ZM5.77344 43.4773H6.77344V39.4318H5.77344H4.77344V43.4773H5.77344ZM5.77344 35.3864H6.77344V31.3409H5.77344H4.77344V35.3864H5.77344ZM5.77344 27.2955H6.77344V23.25H5.77344H4.77344V27.2955H5.77344ZM5.77344 19.2045H6.77344V15.1591H5.77344H4.77344V19.2045H5.77344ZM5.77344 11.1136H6.77344V7.06817H5.77344H4.77344V11.1136H5.77344ZM5.77344 3.02271H6.77344V1H5.77344H4.77344V3.02271H5.77344ZM5.77344 1V2H7.7799V1V0H5.77344V1ZM11.7928 1V2H15.8058V1V0H11.7928V1ZM19.8187 1V2H23.8316V1V0H19.8187V1ZM27.8446 1V2H31.8575V1V0H27.8446V1ZM35.8704 1V2H39.8834V1V0H35.8704V1ZM43.8963 1V2H47.9092V1V0H43.8963V1ZM51.9221 1V2H55.9351V1V0H51.9221V1ZM59.948 1V2H63.9609V1V0H59.948V1ZM67.9739 1V2H71.9868V1V0H67.9739V1ZM75.9997 1V2H80.0127V1V0H75.9997V1ZM84.0256 1V2H88.0385V1V0H84.0256V1ZM92.0515 1V2H96.0644V1V0H92.0515V1ZM100.077 1V2H104.09V1V0H100.077V1ZM108.103 1V2H112.116V1V0H108.103V1ZM116.129 1V2H120.142V1V0H116.129V1ZM124.155 1V2H128.168V1V0H124.155V1ZM132.181 1V2H136.194V1V0H132.181V1ZM140.207 1V2H144.22V1V0H140.207V1ZM148.232 1V2H152.245V1V0H148.232V1ZM156.258 1V2H160.271V1V0H156.258V1ZM164.284 1V2H168.297V1V0H164.284V1ZM172.31 1V2H176.323V1V0H172.31V1ZM180.336 1V2H184.349V1V0H180.336V1ZM188.362 1V2H192.375V1V0H188.362V1ZM196.388 1V2H200.4V1V0H196.388V1ZM204.413 1V2H208.426V1V0H204.413V1ZM212.439 1V2H216.452V1V0H212.439V1ZM220.465 1V2H224.478V1V0H220.465V1ZM228.491 1V2H232.504V1V0H228.491V1ZM236.517 1V2H240.53V1V0H236.517V1ZM244.543 1V2H248.556V1V0H244.543V1ZM252.568 1V2H256.581V1V0H252.568V1ZM260.594 1V2H264.607V1V0H260.594V1ZM268.62 1V2H272.633V1V0H268.62V1ZM276.646 1V2H280.659V1V0H276.646V1ZM284.672 1V2H288.685V1V0H284.672V1ZM292.698 1V2H296.711V1V0H292.698V1ZM300.724 1V2H304.737V1V0H300.724V1ZM308.75 1V2H312.763V1V0H308.75V1ZM316.776 1V2H320.788V1V0H316.776V1ZM324.801 1V2H328.814V1V0H324.801V1ZM332.827 1V2H336.84V1V0H332.827V1ZM340.853 1V2H344.866V1V0H340.853V1ZM348.879 1V2H352.892V1V0H348.879V1ZM356.905 1V2H360.918V1V0H356.905V1ZM364.931 1V2H368.944V1V0H364.931V1ZM372.957 1V2H376.97V1V0H372.957V1ZM380.983 1V2H384.995V1V0H380.983V1ZM389.008 1V2H393.021V1V0H389.008V1ZM397.034 1V2H401.047V1V0H397.034V1ZM405.06 1V2H409.073V1V0H405.06V1ZM413.086 1V2H417.099V1V0H413.086V1ZM421.112 1V2H425.125V1V0H421.112V1ZM429.138 1V2H433.151V1V0H429.138V1ZM437.164 1V2H441.177V1V0H437.164V1ZM445.19 1V2H449.203V1V0H445.19V1ZM453.215 1V2H457.228V1V0H453.215V1ZM461.241 1V2H465.254V1V0H461.241V1ZM469.267 1V2H473.28V1V0H469.267V1ZM477.293 1V2H481.306V1V0H477.293V1ZM485.319 1V2H489.332V1V0H485.319V1ZM493.345 1V2H497.358V1V0H493.345V1ZM501.371 1V2H505.384V1V0H501.371V1ZM509.397 1V2H513.41V1V0H509.397V1ZM517.422 1V2H521.435V1V0H517.422V1ZM525.448 1V2H529.461V1V0H525.448V1ZM533.474 1V2H537.487V1V0H533.474V1ZM541.5 1V2H545.513V1V0H541.5V1ZM549.526 1V2H553.539V1V0H549.526V1ZM557.552 1V2H561.565V1V0H557.552V1ZM565.578 1V2H569.591V1V0H565.578V1ZM573.604 1V2H577.617V1V0H573.604V1ZM581.63 1V2H585.642V1V0H581.63V1ZM589.655 1V2H593.668V1V0H589.655V1ZM597.681 1V2H601.694V1V0H597.681V1ZM605.707 1V2H609.72V1V0H605.707V1ZM613.733 1V2H617.746V1V0H613.733V1ZM621.759 1V2H625.772V1V0H621.759V1ZM629.785 1V2H633.798V1V0H629.785V1ZM637.811 1V2H641.824V1V0H637.811V1ZM645.837 1V2H649.849V1V0H645.837V1ZM653.862 1V2H657.875V1V0H653.862V1ZM661.888 1V2H665.901V1V0H661.888V1ZM669.914 1V2H673.927V1V0H669.914V1ZM677.94 1V2H681.953V1V0H677.94V1ZM685.966 1V2H689.979V1V0H685.966V1ZM693.992 1V2H698.005V1V0H693.992V1ZM702.018 1V2H706.031V1V0H702.018V1ZM710.044 1V2H714.057V1V0H710.044V1ZM718.069 1V2H722.082V1V0H718.069V1ZM726.095 1V2H730.108V1V0H726.095V1ZM734.121 1V2H738.134V1V0H734.121V1ZM742.147 1V2H746.16V1V0H742.147V1ZM750.173 1V2H754.186V1V0H750.173V1ZM758.199 1V2H762.212V1V0H758.199V1ZM766.225 1V2H770.238V1V0H766.225V1ZM774.251 1V2H778.264V1V0H774.251V1ZM782.276 1V2H786.289V1V0H782.276V1ZM790.302 1V2H794.315V1V0H790.302V1ZM798.328 1V2H802.341V1V0H798.328V1ZM806.354 1V2H810.367V1V0H806.354V1ZM814.38 1V2H818.393V1V0H814.38V1ZM822.406 1V2H826.419V1V0H822.406V1ZM830.432 1V2H834.445V1V0H830.432V1ZM838.458 1V2H842.471V1V0H838.458V1ZM846.484 1V2H850.496V1V0H846.484V1ZM854.509 1V2H858.522V1V0H854.509V1ZM862.535 1V2H866.548V1V0H862.535V1ZM870.561 1V2H874.574V1V0H870.561V1ZM878.587 1V2H882.6V1V0H878.587V1ZM886.613 1V2H890.626V1V0H886.613V1ZM894.639 1V2H898.652V1V0H894.639V1ZM902.665 1V2H906.678V1V0H902.665V1ZM910.691 1V2H914.703V1V0H910.691V1ZM918.716 1V2H922.729V1V0H918.716V1ZM926.742 1V2H930.755V1V0H926.742V1ZM934.768 1V2H936.773V1V0H934.768V1ZM936.773 1H935.773V2.91071H936.773H937.773V1H936.773ZM936.773 6.73214H935.773V10.5536H936.773H937.773V6.73214H936.773ZM936.773 14.375H935.773V18.1964H936.773H937.773V14.375H936.773ZM936.773 22.0179H935.773V25.8393H936.773H937.773V22.0179H936.773ZM936.773 29.6607H935.773V33.4821H936.773H937.773V29.6607H936.773ZM936.773 37.3036H935.773V41.125H936.773H937.773V37.3036H936.773ZM936.773 44.9464H935.773V48.7679H936.773H937.773V44.9464H936.773Z" fill="#0E4087"/>
</svg>
