<?xml version="1.0" encoding="UTF-8" standalone="no"?>
<!-- Created with Inkscape (http://www.inkscape.org/) -->

<svg id="introSvg"
   version="1.1"
   id="svg1"
   width="1689.3333"
   height="1254.6667"
   viewBox="0 0 1689.3333 1254.6667"
   sodipodi:docname="logo.svg"
   inkscape:version="1.4.3 (0d15f75, 2025-12-25)"
   xmlns:inkscape="http://www.inkscape.org/namespaces/inkscape"
   xmlns:sodipodi="http://sodipodi.sourceforge.net/DTD/sodipodi-0.dtd"
   xmlns="http://www.w3.org/2000/svg"
   xmlns:svg="http://www.w3.org/2000/svg">
  <defs
     id="defs1" />
  <sodipodi:namedview
     id="namedview1"
     pagecolor="#ffffff"
     bordercolor="#000000"
     borderopacity="0.25"
     inkscape:showpageshadow="2"
     inkscape:pageopacity="0.0"
     inkscape:pagecheckerboard="0"
     inkscape:deskcolor="#d1d1d1"
     inkscape:zoom="0.61609985"
     inkscape:cx="844.83059"
     inkscape:cy="874.04663"
     inkscape:window-width="1920"
     inkscape:window-height="991"
     inkscape:window-x="-9"
     inkscape:window-y="-9"
     inkscape:window-maximized="1"
     inkscape:current-layer="g1" />
  <g
     inkscape:groupmode="layer"
     inkscape:label="Image"
     id="g1">
    <g
       id="g3"
       transform="translate(1.6231112,-3.2462268)">
      <path
         style="fill:#eb2329"
         d="m 463.67342,667.22906 c -0.49018,-0.49018 -0.89123,-15.11776 -0.89123,-32.50575 0,-24.9669 0.37978,-31.9297 1.80612,-33.11347 1.32977,-1.1036 100.23465,-1.41041 374.99999,-1.16326 l 373.1939,0.33569 v 33.33334 33.33333 l -374.1088,0.33568 c -205.75981,0.18462 -374.5098,-0.0654 -374.99998,-0.55556 z m 0.58278,-112.94395 c -1.07108,-1.29058 -1.41686,-11.28211 -1.1652,-33.66901 l 0.35786,-31.83383 h 374.66665 374.66669 v 33.33333 33.33334 l -373.50149,0.33567 c -315.76451,0.28379 -373.73688,0.052 -375.02451,-1.4995 z m -0.66469,-113.6119 c -1.61852,-4.21779 -0.90051,-62.59976 0.79068,-64.29095 1.23761,-1.23761 95.89182,-1.6 417.91318,-1.6 290.33453,0 417.44903,-0.42822 420.06663,-1.41511 2.0644,-0.77832 5.6843,-3.27741 8.0442,-5.55355 3.5049,-3.38057 4.4375,-3.75559 5.0929,-2.04784 0.4412,1.14983 0.6104,15.49892 0.376,31.88688 -0.4004,27.98436 -0.6047,30.08316 -3.3604,34.51374 -1.6138,2.5946 -5.2955,6.0446 -8.1815,7.66667 l -5.2475,2.94921 H 881.74328 c -379.33174,0 -417.41616,-0.19209 -418.15177,-2.10905 z m -308.8093,-45.20537 v -37.98108 l 5,-3.23647 C 163.91331,351.57624 662.39433,63.615349 729.11902,25.357646 760.44003,7.3992292 751.3515,8.9291176 829.44884,8.468942 l 67.33333,-0.3967505 -7.33333,3.7687145 C 885.4155,13.913699 803.81551,60.827928 708.11551,116.09475 612.41552,171.36157 449.6129,265.37541 346.33193,325.0144 243.05095,384.65339 157.70095,433.44893 156.66527,433.44893 c -1.57779,0 -1.88306,-6.15728 -1.88306,-37.98109 z M 1137.9567,293.25729 C 1088.9107,252.08522 1003.0322,180.01934 947.1155,133.11088 891.19884,86.202423 845.45645,47.138655 845.46574,46.302506 c 0.009,-0.836148 10.92019,-7.790005 24.24643,-15.453015 21.36813,-12.28736 25.11087,-13.996498 31.69265,-14.472581 4.74444,-0.343181 9.14751,0.179259 12.08691,1.434157 4.12214,1.759833 66.38776,53.60573 284.62377,236.993933 11,9.24353 39.2,32.86894 62.6667,52.50091 23.4666,19.63197 43.7166,36.91188 45,38.3998 2.6018,3.01666 3.1327,11.75822 0.9604,15.81707 -3.2266,6.02901 -7.0224,6.59281 -44.3864,6.59281 h -35.225 z"
         id="path4" />
      <path
         style="fill:#0e4f9e"
         d="m 406.42048,1250.1002 c -39.9266,-6.7126 -73.82274,-28.1839 -95.22617,-60.3202 -38.97582,-58.5206 -26.77025,-139.6521 27.59624,-183.4346 48.4822,-39.04375 122.57727,-42.03183 175.13266,-7.06268 12.17139,8.09858 29.48701,25.37728 37.32388,37.24428 14.31475,21.6761 20.76514,42.3729 21.81639,70.0003 1.08716,28.5709 -2.83361,47.7986 -14.30983,70.1763 -27.67202,53.9584 -89.82664,83.9055 -152.33317,73.3966 z m 44.83592,-53.4315 c 25.83421,-6.665 48.45873,-28.5603 57.05885,-55.2197 3.98693,-12.3591 4.85857,-35.113 1.86118,-48.5857 -6.69694,-30.1015 -30.31495,-55.2911 -58.7973,-62.7098 -9.11933,-2.3753 -26.75556,-2.6596 -36.86464,-0.5944 -10.35529,2.1156 -27.48672,10.9571 -36.09237,18.6271 -10.31054,9.1897 -20.10065,24.2676 -24.44199,37.6434 -2.98935,9.2104 -3.56282,13.3919 -3.60498,26.286 -0.0582,17.8156 2.23316,28.0865 9.25382,41.479 11.08137,21.1387 30.89224,37.4 52.48656,43.0825 9.9001,2.6052 29.02638,2.6011 39.14087,-0.01 z m 803.7781,53.4003 c -45.4556,-7.9655 -82.4302,-36.0203 -101.6506,-77.1282 -10.1761,-21.7643 -14.75,-49.8397 -12.1001,-74.272 6.5551,-60.4387 46.2666,-105.29379 106.3041,-120.0731 9.7519,-2.40062 15.7727,-2.92335 33.8609,-2.93983 19.6928,-0.018 23.3984,0.3547 35.3334,3.55325 18.3602,4.9205 42.4516,17.02373 56.6484,28.45958 6.2234,5.013 11.5128,10.1404 11.7542,11.3941 0.429,2.2276 -30.7084,42.3862 -32.8645,42.3862 -0.5716,0 -2.8015,-1.8523 -4.9554,-4.1162 -11.7244,-12.3232 -34.1107,-24.934 -49.6157,-27.9498 -11.496,-2.236 -30.7596,-0.9416 -41.4444,2.7848 -24.7324,8.6257 -44.8118,30.9181 -51.6815,57.3775 -2.9158,11.2303 -2.9239,32.3742 -0.017,44.4046 6.9274,28.669 30.2315,53.0048 57.5789,60.1279 9.6642,2.5172 30.9281,2.6329 39.9303,0.2173 14.5271,-3.8982 29.8513,-12.0085 42.3511,-22.4143 3.4931,-2.908 7.145,-5.0947 8.1153,-4.8595 2.5865,0.627 32.8669,34.4944 32.8669,36.7603 0,2.3298 -10.6833,12.1916 -21.8413,20.1618 -12.1555,8.6827 -36.0407,19.7757 -50.9746,23.674 -16.5575,4.3222 -40.9895,5.3621 -57.5984,2.4516 z m 262.946,0.1979 c -30.6844,-5.031 -55.7409,-17.3957 -77.0078,-38.001 -24.0063,-23.2596 -37.1331,-50.3441 -40.8822,-84.3518 -5.2834,-47.9248 14.8362,-95.6146 52.2239,-123.7871 27.6281,-20.81841 61.195,-30.73744 97.8011,-28.90027 27.5348,1.38189 51.7995,9.1305 73.5436,23.48508 30.7816,20.32089 51.6177,51.30079 58.4169,86.85669 2.8367,14.8345 2.8353,41.457 0,55.2695 -11.0557,53.8027 -51.734,95.1298 -105.7107,107.3967 -15.0911,3.4297 -43.7702,4.428 -58.3818,2.0322 z m 44.0652,-53.5224 c 27.7465,-7.2271 50.6389,-30.9079 58.1071,-60.1082 3.2318,-12.6362 3.5197,-33.7791 0.6161,-45.2405 -6.8784,-27.1506 -26.5099,-49.5267 -51.9868,-59.2547 -10.9311,-4.1739 -32.5001,-5.2255 -44.6833,-2.1786 -41.1791,10.2985 -68.379,51.0034 -62.683,93.806 2.942,22.1082 10.9494,37.877 26.8569,52.8889 10.6971,10.0949 21.9559,16.6031 34.6049,20.0036 9.6265,2.588 29.391,2.6301 39.1681,0.083 z M 8.1155472,1113.449 V 978.73128 l 29.6666648,0.35884 29.666666,0.35884 0.666666,55.33334 0.666667,55.3333 59.666659,0.3471 59.66667,0.3471 v -53.4348 c 0,-34.2841 0.49467,-54.35898 1.38024,-56.01369 1.29712,-2.42368 3.06101,-2.57901 29.28642,-2.57901 26.22541,0 27.98931,0.15533 29.28642,2.57901 0.92427,1.727 1.38025,45.36389 1.38025,132.08769 0,86.7238 -0.45598,130.3606 -1.38025,132.0876 -1.29703,2.4236 -3.06065,2.579 -29.25464,2.579 -20.83533,0 -28.1468,-0.4208 -28.95309,-1.6666 -0.59327,-0.9167 -1.37868,-24.7667 -1.74535,-53 l -0.66667,-51.3334 -57.84615,-0.3476 c -41.30922,-0.2482 -58.362159,0.081 -59.651145,1.1504 -1.449379,1.2029 -1.873724,11.6476 -2.153846,53.0143 l -0.348851,51.5163 -29.666666,0.3588 -29.6666648,0.3589 z m 605.9477728,133 c -0.34934,-0.9167 -0.48051,-61.3667 -0.29148,-134.3334 l 0.34368,-132.66664 57.33333,-0.40291 c 60.04817,-0.42199 78.27845,0.53717 95.90818,5.0461 24.81454,6.34649 42.17173,16.15115 60.23197,34.02345 19.63906,19.4348 29.77019,38.0557 35.19899,64.6953 3.54102,17.376 3.60358,43.9007 0.1431,60.667 -11.78847,57.1158 -57.07706,96.2585 -119.48224,103.268 -18.36227,2.0625 -128.58275,1.8096 -129.38553,-0.2969 z m 134.28031,-52.2871 c 26.14996,-6.6993 46.57858,-28.156 53.99568,-56.7129 3.01605,-11.6123 3.01605,-35.0544 0,-46.6667 -7.42698,-28.595 -28.29751,-50.6389 -54.89047,-57.9766 -8.51021,-2.3482 -63.643,-4.572 -70.52523,-2.8447 l -3.47476,0.8721 v 82.5435 c 0,77.532 0.14166,82.5741 2.33333,83.0475 1.28333,0.2771 16.30373,0.3506 33.37865,0.1632 22.85881,-0.2508 33.19114,-0.8904 39.1828,-2.4254 z m 158.00232,53.0731 c -0.49341,-0.4934 -0.89711,-60.4237 -0.89711,-133.1783 0,-109.9154 0.30664,-132.53571 1.81363,-133.7864 1.31956,-1.09513 28.83462,-1.41204 101.00003,-1.16326 l 99.1863,0.34192 0.3634,24.33334 c 0.1999,13.3833 0.1999,24.4701 0,24.6372 -0.1998,0.1671 -32.1634,0.6171 -71.03,1 l -70.6667,0.6961 -0.35985,28.3334 c -0.19792,15.5833 -0.19792,28.4686 0,28.6339 0.19792,0.1654 28.85985,0.6154 63.69315,1 l 63.3334,0.6994 v 24 24 l -61.8796,0.3468 c -43.5232,0.2439 -62.41746,0.7932 -63.69267,1.8515 -1.44539,1.1995 -1.74019,7.2129 -1.45374,29.6532 l 0.35931,28.1485 72.6667,0.6667 72.6666,0.6666 v 24.6667 24.6667 l -102.1029,0.3415 c -56.15654,0.1879 -102.50654,-0.062 -102.99995,-0.5555 z M 383.70699,846.7019 c -26.28816,-2.33265 -52.57302,-10.03034 -76.25812,-22.33268 l -14.66667,-7.61804 -0.35347,-38.98445 c -0.19441,-21.44145 0.009,-38.98445 0.45309,-38.98445 0.44361,0 5.40267,4.14803 11.02014,9.21783 45.25346,40.84161 106.63433,49.76344 161.09334,23.41526 12.85234,-6.21818 29.52987,-18.02814 38.39082,-27.18593 2.89883,-2.99594 6.20769,-5.44716 7.35303,-5.44716 1.14533,0 4.77356,2.77884 8.06273,6.1752 40.37349,41.6892 107.21459,53.30535 160.76396,27.93878 15.34524,-7.26911 29.52417,-16.94268 39.17079,-26.72424 4.00829,-4.06436 8.13533,-7.38974 9.17121,-7.38974 1.03587,0 5.96192,3.84746 10.94676,8.5499 40.85727,38.54269 100.4566,49.56077 152.7537,28.23945 14.59286,-5.94945 27.81861,-14.23149 41.00461,-25.6773 5.77357,-5.01163 11.26295,-9.67075 12.19863,-10.3536 1.20722,-0.88102 4.35384,1.21136 10.83593,7.20545 18.53767,17.14207 40.32559,28.97503 65.70303,35.68315 18.0011,4.75829 46.855,4.95176 65.298,0.43781 14.1994,-3.4753 27.4552,-8.65131 39.7158,-15.50782 8.9834,-5.02381 25.2654,-17.56873 31.6673,-24.39892 2.1539,-2.29796 4.6808,-4.17812 5.6155,-4.17812 0.9347,0 4.5135,2.73507 7.9531,6.07794 43.525,42.30145 107.595,53.47581 161.151,28.10611 16.337,-7.73892 27.1584,-15.18213 39.6635,-27.2816 7.1513,-6.9193 10.5199,-9.38996 11.0213,-8.08335 0.3971,1.03497 0.5625,18.91514 0.3674,39.73371 l -0.3546,37.85194 -10.8284,6.2062 c -33.4987,19.19959 -76.0818,28.57765 -115.2535,25.38229 -28.4609,-2.32165 -52.4342,-9.02146 -77.1661,-21.56559 -8.4158,-4.26854 -15.8781,-7.76098 -16.583,-7.76098 -0.7049,0 -7.736,3.30152 -15.6248,7.33671 -59.0046,30.18161 -127.4171,30.18161 -186.42168,0 -7.88874,-4.03519 -14.83056,-7.33671 -15.42625,-7.33671 -0.5957,0 -8.34604,3.587 -17.22299,7.97111 -35.51273,17.53886 -71.39646,24.62031 -108.13991,21.34079 -28.12731,-2.51048 -50.53873,-8.87333 -76.47978,-21.71345 l -16.47979,-8.15706 -8.95487,4.89724 c -35.52399,19.42737 -76.70788,28.38829 -115.03065,25.02874 -28.85134,-2.52924 -52.37827,-9.13357 -76.96955,-21.60639 -8.41579,-4.26854 -15.87816,-7.76098 -16.58305,-7.76098 -0.70488,0 -7.73603,3.30152 -15.62477,7.33671 -24.66275,12.61531 -49.73444,19.71859 -77.87752,22.06418 -16.13527,1.34479 -16.25887,1.34424 -33.0752,-0.14794 z"
         id="path3" />
    </g>
  </g>
</svg>
